HIERARCHY
ROOT root
{
	OFFSET 0.000000 0.000000 0.000000
	CHANNELS 6 Xposition Yposition Zposition Zrotation Yrotation Xrotation
	JOINT lhip
	{
		OFFSET 0.058581 -0.082280 -0.017664
		CHANNELS 3 Zrotation Yrotation Xrotation
		JOINT lknee
		{
			OFFSET 0.043451 -0.386469 0.008037
			CHANNELS 3 Zrotation Yrotation Xrotation
			JOINT lankle
			{
				OFFSET -0.014790 -0.426874 -0.037428
				CHANNELS 3 Zrotation Yrotation Xrotation
				JOINT ltoe
				{
					OFFSET 0.041054 -0.060286 0.122042
					CHANNELS 3 Zrotation Yrotation Xrotation
					End Site
					{
						OFFSET 0.000000 0.000000 0.000000
					}
				}
			}
		}
	}
	JOINT rhip
	{
		OFFSET -0.060310 -0.090513 -0.013543
		CHANNELS 3 Zrotation Yrotation Xrotation
		JOINT rknee
		{
			OFFSET -0.043257 -0.383688 -0.004843
			CHANNELS 3 Zrotation Yrotation Xrotation
			JOINT rankle
			{
				OFFSET 0.019056 -0.420046 -0.034562
				CHANNELS 3 Zrotation Yrotation Xrotation
				JOINT rtoe
				{
					OFFSET -0.034840 -0.062106 0.130323
					CHANNELS 3 Zrotation Yrotation Xrotation
					End Site
					{
						OFFSET 0.000000 0.000000 0.000000
					}
				}
			}
		}
	}
	JOINT lowerback
	{
		OFFSET 0.004439 0.124404 -0.038385
		CHANNELS 3 Zrotation Yrotation Xrotation
		JOINT upperback
		{
			OFFSET 0.004488 0.137956 0.026820
			CHANNELS 3 Zrotation Yrotation Xrotation
			JOINT chest
			{
				OFFSET -0.002265 0.056032 0.002855
				CHANNELS 3 Zrotation Yrotation Xrotation
				JOINT lowerneck
				{
					OFFSET -0.013390 0.211636 -0.033468
					CHANNELS 3 Zrotation Yrotation Xrotation
					JOINT upperneck
					{
						OFFSET 0.010113 0.088937 0.050410
						CHANNELS 3 Zrotation Yrotation Xrotation
						End Site
						{
							OFFSET 0.000000 0.000000 0.000000
						}
					}
				}
				JOINT lclavicle
				{
					OFFSET 0.071702 0.114000 -0.018898
					CHANNELS 3 Zrotation Yrotation Xrotation
					JOINT lshoulder
					{
						OFFSET 0.122921 0.045205 -0.019046
						CHANNELS 3 Zrotation Yrotation Xrotation
						JOINT lelbow
						{
							OFFSET 0.255332 -0.015649 -0.022946
							CHANNELS 3 Zrotation Yrotation Xrotation
							JOINT lwrist
							{
								OFFSET 0.265709 0.012698 -0.007375
								CHANNELS 3 Zrotation Yrotation Xrotation
								End Site
								{
									OFFSET 0.000000 0.000000 0.000000
								}
							}
						}
					}
				}
				JOINT rclavicle
				{
					OFFSET -0.082954 0.112472 -0.023707
					CHANNELS 3 Zrotation Yrotation Xrotation
					JOINT rshoulder
					{
						OFFSET -0.113228 0.046853 -0.008472
						CHANNELS 3 Zrotation Yrotation Xrotation
						JOINT relbow
						{
							OFFSET -0.260127 -0.014369 -0.031269
							CHANNELS 3 Zrotation Yrotation Xrotation
							JOINT rwrist
							{
								OFFSET -0.269108 0.006794 -0.006027
								CHANNELS 3 Zrotation Yrotation Xrotation
								End Site
								{
									OFFSET 0.000000 0.000000 0.000000
								}
							}
						}
					}
				}
			}
		}
	}
}
MOTION
Frames: 11
Frame Time: 0.033333
0.475185 0.387223 0.677246 94.199602 6.126558 179.752223 2.684391 -0.551766 -15.475797 -5.597040 -0.881271 9.229406 -7.720012 10.920295 -9.833829 0.000000 -0.000000 0.000000 0.016810 0.110393 -14.923419 6.077258 -0.092217 20.277102 7.677923 -1.738206 3.338660 0.000000 -0.000000 0.000000 -3.286122 3.156971 -1.920514 9.092171 -3.943929 4.280392 9.586804 2.560576 -1.420822 -3.771905 -1.079694 29.027992 0.951859 11.873911 -19.013513 36.859721 -19.372282 -8.110297 -62.738565 -19.403885 5.370700 27.867057 -54.635104 -17.259638 2.452802 -20.706227 -34.470382 -47.584186 12.003407 -23.830135 -30.484397 34.959521 -50.068548 -12.878345 20.130953 -13.150088 -0.000354 16.412655 -1.950890 
0.475398 0.388897 0.678268 94.484535 5.671701 -179.618027 1.938197 -0.758052 -15.753924 -2.855303 -0.817658 1.695310 -6.885270 12.167152 -9.556331 0.000000 -0.000000 0.000000 -0.300729 -0.496955 -15.043208 5.938752 -1.286708 22.831734 8.647732 -1.570027 4.008850 0.000000 -0.000000 0.000000 -2.132245 2.712786 -1.523037 9.245278 -3.631628 0.836091 9.631312 3.092248 0.688942 -3.998820 -3.469192 30.769640 1.048042 13.747554 -20.205280 35.237573 -18.314588 -5.800500 -71.842844 -15.559000 9.863663 21.698821 -59.089204 -9.050136 5.204680 -19.609162 -38.028059 -47.499945 10.672295 -22.169015 -30.039375 35.285381 -50.784877 -13.022254 22.992051 -11.977569 -1.992013 16.655413 -1.953468 
0.475371 0.390250 0.680373 94.654777 5.032219 -179.106844 1.241864 -1.476001 -16.207962 -1.169806 -1.555945 -2.906111 -6.404582 12.742954 -10.062169 0.000000 -0.000000 0.000000 -0.663708 -0.968578 -15.250272 5.675876 -2.441899 24.532687 9.596954 -2.055935 5.073618 0.000000 -0.000000 0.000000 -0.922156 1.780450 -1.084625 9.204694 -3.403608 -1.974972 9.359580 3.596091 2.743748 -3.898033 -5.099422 31.024554 1.322289 15.444059 -20.622363 34.281274 -16.084293 -3.848960 -79.629089 -10.513592 13.686449 11.017586 -61.016843 1.848418 7.164310 -18.614959 -42.595129 -46.766882 9.281624 -20.519164 -30.224521 35.286002 -51.430991 -13.197078 26.194789 -11.052227 -3.619017 17.016564 -0.810564 
0.474810 0.389855 0.681821 94.809431 4.803368 -179.016871 1.000304 -2.362806 -16.373976 -1.177975 -2.323503 -3.112568 -5.783444 12.777135 -9.451581 0.000000 -0.000000 0.000000 -0.794672 -0.963240 -15.762361 5.262407 -3.388953 25.521502 10.192655 -2.516702 6.239858 0.000000 -0.000000 0.000000 -0.151959 1.195716 -0.625878 9.486059 -2.711277 -3.943143 9.175542 4.235598 4.488755 -3.551431 -6.927228 31.960939 1.676448 16.758049 -21.195622 33.111177 -12.329307 -1.112438 -85.826748 -3.868545 16.559698 -6.049068 -60.796552 17.991408 8.552424 -17.892455 -47.619426 -45.475036 7.477563 -18.405343 -30.769316 35.152064 -51.980378 -13.256482 29.417185 -9.716308 -5.819298 18.209005 1.289435 
0.474156 0.388632 0.681505 94.895204 4.867061 -179.214531 1.010984 -2.593754 -16.004792 -2.056765 -2.651030 -1.163659 -5.285828 12.635062 -8.971425 0.000000 -0.000000 0.000000 -0.720702 -0.809896 -16.044395 5.027850 -3.562292 25.001544 10.410931 -2.746443 6.946105 0.000000 -0.000000 0.000000 -0.038960 1.320611 -0.729847 9.853477 -2.007225 -4.071955 9.039720 4.623103 4.913858 -3.014445 -8.105383 32.983008 1.865338 16.922765 -21.493536 32.719982 -9.474469 0.723271 -87.355057 -0.565697 17.385006 -17.202100 -59.275526 28.098546 7.985734 -17.383009 -49.051793 -44.573485 6.375590 -16.967491 -31.393899 35.110683 -52.374145 -12.940197 30.024069 -8.725921 -6.861447 18.904874 2.741626 
0.473108 0.386330 0.680103 95.024014 4.935012 -179.513663 0.932170 -2.397641 -14.934936 -3.416564 -2.511261 1.973698 -4.961317 12.241485 -8.058219 0.000000 -0.000000 0.000000 -0.476871 -0.449601 -16.473821 4.602057 -3.523025 22.681821 10.528151 -3.017288 7.771312 0.000000 -0.000000 0.000000 0.009687 1.703517 -1.399711 10.425238 -0.876496 -3.401745 8.813046 5.156215 4.913600 -1.978173 -9.374050 34.193642 2.133828 16.336990 -21.753879 32.810084 -5.078585 2.973400 -87.037592 3.208757 18.010894 -30.446060 -55.968806 39.419629 6.320794 -18.476753 -50.628246 -43.417378 4.973814 -15.182533 -32.567058 35.489003 -52.790739 -12.332533 28.772902 -7.280700 -7.589836 19.657267 4.953482 
0.471988 0.383537 0.678691 95.175035 4.865378 -179.816198 0.779252 -1.872194 -13.453562 -4.540592 -2.150210 4.962512 -4.820743 11.584060 -6.594087 0.000000 -0.000000 0.000000 -0.050500 0.101245 -16.950137 3.978962 -3.093739 18.612939 10.324962 -3.420064 7.911403 0.000000 -0.000000 0.000000 0.096168 2.058715 -2.180705 10.901567 0.316569 -2.599136 8.662486 5.671636 4.691264 -0.982782 -10.251707 35.024205 2.370931 15.283465 -22.007635 33.437021 -0.991606 4.925655 -84.731064 6.401759 18.308889 -39.241163 -51.455376 47.175028 4.578522 -20.747394 -50.895626 -42.493141 3.886799 -13.746483 -33.793166 36.099426 -53.235401 -11.692131 25.878598 -6.340797 -7.518265 19.874269 6.526825 
0.470282 0.380921 0.677805 95.315984 4.638820 179.825225 0.581961 -1.288696 -12.074101 -5.489830 -2.321024 8.089470 -5.220640 11.296212 -6.624921 0.000000 -0.000000 0.000000 0.407108 0.635390 -17.473493 3.214886 -2.388457 13.618703 10.022432 -4.106963 6.204898 0.000000 -0.000000 0.000000 0.365449 2.379956 -2.635046 11.106333 1.506741 -2.063975 8.544662 6.092843 4.505354 -0.211846 -11.100241 35.442047 2.434260 13.903712 -22.496665 34.237801 2.321267 6.520308 -81.501980 8.585765 18.105826 -42.309920 -45.560039 51.071540 2.784710 -23.373822 -48.253241 -41.934469 3.316134 -12.752819 -34.651428 36.435237 -53.989610 -11.127614 22.297937 -6.079265 -7.344901 20.058673 7.004018 
0.468146 0.378212 0.677484 95.404666 4.380100 179.355391 0.340750 -0.779734 -11.298354 -6.513674 -3.168218 11.865795 -5.932544 11.428426 -8.006395 0.000000 -0.000000 0.000000 0.686249 1.093877 -17.922148 2.626740 -1.527395 9.264132 9.584996 -4.762949 2.475125 0.000000 -0.000000 0.000000 0.821016 2.663194 -2.714665 11.088889 2.477390 -1.649530 8.470857 6.412516 4.217492 -0.008193 -12.161605 36.481324 1.993245 12.754711 -23.631327 34.651156 4.527538 7.592890 -78.373282 9.866289 17.373924 -39.940653 -38.017270 52.306990 0.849663 -25.593571 -42.650928 -41.890626 3.461210 -11.975843 -35.103830 36.375356 -55.057973 -10.888890 18.456960 -6.208463 -8.065744 20.752179 6.164848 
0.465623 0.374816 0.677135 95.368323 3.816143 178.470649 -0.007442 -0.794386 -11.293069 -8.175953 -4.408846 17.227292 -6.516807 10.937401 -8.886620 0.000000 -0.000000 0.000000 0.599512 1.275990 -18.003710 2.501520 -0.827216 7.150984 8.821571 -5.376929 -1.052273 0.000000 -0.000000 0.000000 1.650848 2.839186 -2.305423 10.648774 3.121396 -1.508554 8.284985 6.653414 4.074927 -0.035795 -12.685937 37.268783 1.419916 11.882874 -24.732237 34.757557 5.680658 7.638459 -75.739394 10.629467 15.940843 -31.489977 -26.248007 50.743898 -4.164174 -26.752764 -32.634465 -42.102148 4.367998 -11.593401 -34.974235 36.112503 -56.479305 -10.917969 14.062217 -7.466235 -7.615904 21.369281 5.214045 
0.463890 0.372592 0.676254 95.322751 2.976008 177.635401 -0.240285 -1.355569 -11.968898 -9.617888 -5.388664 20.832679 -6.718762 10.050832 -8.576756 0.000000 -0.000000 0.000000 0.210965 0.974604 -17.659326 3.123563 -0.763921 8.923026 8.517919 -5.599858 -1.962972 0.000000 -0.000000 0.000000 2.563426 2.729098 -1.729869 10.015190 3.087463 -1.848705 7.955154 6.644649 4.255185 0.016964 -12.387082 37.221724 0.992750 11.635074 -25.253854 34.678110 6.190405 6.903672 -74.351321 10.839607 13.641692 -22.728185 -16.002018 48.111237 -12.116046 -25.387255 -22.470628 -42.240408 5.339930 -11.546571 -34.288602 35.898397 -57.666735 -11.051815 11.343539 -9.237141 -4.426734 20.827433 5.605420 
